<svg width="884" height="62" viewBox="0 0 884 62" fill="none" xmlns="http://www.w3.org/2000/svg">
<g filter="url(#filter0_d_239_3033)">
<path d="M6 15C6 7.26801 12.268 1 20 1C27.732 1 34 7.26801 34 15C34 22.732 27.732 29 20 29C12.268 29 6 22.732 6 15Z" fill="#2563EB"/>
<path d="M21.3146 10.2727V19H19.9936V11.5938H19.9425L17.8544 12.9574V11.696L20.032 10.2727H21.3146Z" fill="white"/>
</g>
<rect x="42" y="14.5" width="379" height="1" fill="#2563EB"/>
<g filter="url(#filter1_d_239_3033)">
<path d="M427 15C427 7.26801 433.268 1 441 1C448.732 1 455 7.26801 455 15C455 22.732 448.732 29 441 29C433.268 29 427 22.732 427 15Z" fill="#2563EB"/>
<path d="M438.16 19V18.0455L441.113 14.9858C441.428 14.6534 441.688 14.3622 441.893 14.1122C442.1 13.8594 442.255 13.6193 442.357 13.392C442.46 13.1648 442.511 12.9233 442.511 12.6676C442.511 12.3778 442.442 12.1278 442.306 11.9176C442.17 11.7045 441.984 11.5412 441.748 11.4276C441.512 11.3111 441.246 11.2528 440.951 11.2528C440.638 11.2528 440.366 11.3168 440.133 11.4446C439.9 11.5724 439.721 11.7528 439.596 11.9858C439.471 12.2187 439.408 12.4915 439.408 12.804H438.151C438.151 12.2727 438.273 11.8082 438.518 11.4105C438.762 11.0128 439.097 10.7045 439.523 10.4858C439.95 10.2642 440.434 10.1534 440.977 10.1534C441.525 10.1534 442.008 10.2628 442.425 10.4815C442.846 10.6974 443.174 10.9929 443.41 11.3679C443.646 11.7401 443.763 12.1605 443.763 12.6293C443.763 12.9531 443.702 13.2699 443.58 13.5795C443.461 13.8892 443.252 14.2344 442.954 14.6151C442.656 14.9929 442.241 15.4517 441.71 15.9915L439.975 17.8068V17.8707H443.904V19H438.16Z" fill="white"/>
</g>
<rect x="463" y="14.5" width="379" height="1" fill="#2563EB"/>
<path d="M7.9219 47.5625C7.86887 47.0663 7.64539 46.6799 7.25145 46.4034C6.8613 46.1269 6.35372 45.9886 5.72872 45.9886C5.28933 45.9886 4.91243 46.0549 4.59804 46.1875C4.28365 46.3201 4.04311 46.5 3.87645 46.7273C3.70978 46.9545 3.62455 47.214 3.62077 47.5057C3.62077 47.7481 3.67569 47.9583 3.78554 48.1364C3.89918 48.3144 4.05258 48.4659 4.24577 48.5909C4.43895 48.7121 4.65296 48.8144 4.88781 48.8977C5.12266 48.9811 5.3594 49.0511 5.59804 49.108L6.68895 49.3807C7.12834 49.483 7.55069 49.6212 7.95599 49.7955C8.36508 49.9697 8.73061 50.1894 9.05258 50.4545C9.37834 50.7197 9.63592 51.0398 9.82531 51.4148C10.0147 51.7898 10.1094 52.2292 10.1094 52.733C10.1094 53.4148 9.93516 54.0152 9.58668 54.5341C9.23819 55.0492 8.7344 55.4527 8.07531 55.7443C7.42001 56.0322 6.62645 56.1761 5.69463 56.1761C4.78933 56.1761 4.00334 56.036 3.33668 55.7557C2.6738 55.4754 2.15486 55.0663 1.77986 54.5284C1.40865 53.9905 1.20789 53.3352 1.17758 52.5625H3.25145C3.28175 52.9678 3.40675 53.3049 3.62645 53.5739C3.84615 53.8428 4.13213 54.0436 4.4844 54.1761C4.84046 54.3087 5.23819 54.375 5.67758 54.375C6.13592 54.375 6.53743 54.3068 6.88213 54.1705C7.23061 54.0303 7.50334 53.8371 7.70031 53.5909C7.89728 53.3409 7.99766 53.0492 8.00145 52.7159C7.99766 52.4129 7.90865 52.1629 7.7344 51.9659C7.56016 51.7652 7.31584 51.5985 7.00145 51.4659C6.69084 51.3295 6.32721 51.2083 5.91054 51.1023L4.58668 50.7614C3.62834 50.5152 2.87077 50.142 2.31395 49.642C1.76092 49.1383 1.4844 48.4697 1.4844 47.6364C1.4844 46.9508 1.67001 46.3504 2.04122 45.8352C2.41622 45.3201 2.92569 44.9205 3.56963 44.6364C4.21357 44.3485 4.94274 44.2045 5.75713 44.2045C6.58289 44.2045 7.30637 44.3485 7.92758 44.6364C8.55258 44.9205 9.04311 45.3163 9.39918 45.8239C9.75524 46.3277 9.93895 46.9072 9.95031 47.5625H7.9219ZM16.3357 47.2727V48.8636H11.3187V47.2727H16.3357ZM12.5573 45.1818H14.6141V53.375C14.6141 53.6515 14.6558 53.8636 14.7391 54.0114C14.8262 54.1553 14.9399 54.2538 15.08 54.3068C15.2202 54.3598 15.3755 54.3864 15.5459 54.3864C15.6747 54.3864 15.7921 54.3769 15.8982 54.358C16.0081 54.339 16.0914 54.322 16.1482 54.3068L16.4948 55.9148C16.385 55.9527 16.2278 55.9943 16.0232 56.0398C15.8225 56.0852 15.5762 56.1117 15.2846 56.1193C14.7694 56.1345 14.3054 56.0568 13.8925 55.8864C13.4796 55.7121 13.152 55.4432 12.9096 55.0795C12.6709 54.7159 12.5535 54.2614 12.5573 53.7159V45.1818ZM21.9058 56.1705C21.0308 56.1705 20.2751 55.9886 19.6387 55.625C19.0061 55.2576 18.5194 54.7386 18.1785 54.0682C17.8376 53.3939 17.6671 52.6004 17.6671 51.6875C17.6671 50.7898 17.8376 50.0019 18.1785 49.3239C18.5232 48.642 19.0043 48.1117 19.6217 47.733C20.2391 47.3504 20.9645 47.1591 21.7978 47.1591C22.3357 47.1591 22.8433 47.2462 23.3205 47.4205C23.8016 47.5909 24.2258 47.8561 24.5933 48.2159C24.9645 48.5758 25.2561 49.0341 25.4683 49.5909C25.6804 50.1439 25.7864 50.803 25.7864 51.5682V52.1989H18.633V50.8125H23.8149C23.8111 50.4186 23.7258 50.0682 23.5592 49.7614C23.3925 49.4508 23.1596 49.2064 22.8603 49.0284C22.5649 48.8504 22.2202 48.7614 21.8262 48.7614C21.4058 48.7614 21.0364 48.8636 20.7183 49.0682C20.4001 49.2689 20.152 49.5341 19.9739 49.8636C19.7997 50.1894 19.7107 50.5473 19.7069 50.9375V52.1477C19.7069 52.6553 19.7997 53.0909 19.9853 53.4545C20.1709 53.8144 20.4304 54.0909 20.7637 54.2841C21.0971 54.4735 21.4872 54.5682 21.9342 54.5682C22.2334 54.5682 22.5043 54.5265 22.7467 54.4432C22.9891 54.3561 23.1993 54.2292 23.3774 54.0625C23.5554 53.8958 23.6899 53.6894 23.7808 53.4432L25.7012 53.6591C25.58 54.1667 25.3489 54.6098 25.008 54.9886C24.6709 55.3636 24.2391 55.6553 23.7126 55.8636C23.1861 56.0682 22.5838 56.1705 21.9058 56.1705ZM27.6065 59.2727V47.2727H29.6292V48.7159H29.7486C29.8546 48.5038 30.0042 48.2784 30.1974 48.0398C30.3906 47.7973 30.652 47.5909 30.9815 47.4205C31.3111 47.2462 31.7315 47.1591 32.2429 47.1591C32.9171 47.1591 33.5251 47.3314 34.0667 47.6761C34.6122 48.017 35.044 48.5227 35.3622 49.1932C35.6842 49.8598 35.8451 50.678 35.8451 51.6477C35.8451 52.6061 35.6879 53.4205 35.3736 54.0909C35.0592 54.7614 34.6311 55.2727 34.0895 55.625C33.5478 55.9773 32.9342 56.1534 32.2486 56.1534C31.7486 56.1534 31.3338 56.0701 31.0042 55.9034C30.6747 55.7367 30.4095 55.536 30.2088 55.3011C30.0118 55.0625 29.8584 54.8371 29.7486 54.625H29.6633V59.2727H27.6065ZM29.6236 51.6364C29.6236 52.2008 29.7031 52.6951 29.8622 53.1193C30.0251 53.5436 30.258 53.875 30.5611 54.1136C30.8679 54.3485 31.2391 54.4659 31.6747 54.4659C32.1292 54.4659 32.5099 54.3447 32.8167 54.1023C33.1236 53.8561 33.3546 53.5208 33.5099 53.0966C33.669 52.6686 33.7486 52.1818 33.7486 51.6364C33.7486 51.0947 33.6709 50.6136 33.5156 50.1932C33.3603 49.7727 33.1292 49.4432 32.8224 49.2045C32.5156 48.9659 32.133 48.8466 31.6747 48.8466C31.2353 48.8466 30.8622 48.9621 30.5554 49.1932C30.2486 49.4242 30.0156 49.7481 29.8565 50.1648C29.7012 50.5814 29.6236 51.072 29.6236 51.6364Z" fill="#1F2937"/>
<g filter="url(#filter2_d_239_3033)">
<path d="M847 15C847 7.26801 853.268 1 861 1C868.732 1 875 7.26801 875 15C875 22.732 868.732 29 861 29C853.268 29 847 22.732 847 15Z" fill="#2563EB"/>
<path d="M861.011 19.1193C860.425 19.1193 859.903 19.0185 859.442 18.8168C858.985 18.6151 858.623 18.3352 858.356 17.9773C858.092 17.6165 857.95 17.1989 857.93 16.7244H859.268C859.285 16.983 859.371 17.2074 859.528 17.3977C859.687 17.5852 859.894 17.7301 860.15 17.8324C860.406 17.9347 860.69 17.9858 861.002 17.9858C861.346 17.9858 861.65 17.9261 861.914 17.8068C862.181 17.6875 862.39 17.5213 862.54 17.3082C862.691 17.0923 862.766 16.8438 862.766 16.5625C862.766 16.2699 862.691 16.0128 862.54 15.7912C862.393 15.5668 862.175 15.3906 861.888 15.2628C861.604 15.1349 861.261 15.071 860.857 15.071H860.12V13.9972H860.857C861.181 13.9972 861.465 13.9389 861.71 13.8224C861.957 13.706 862.15 13.544 862.289 13.3366C862.428 13.1264 862.498 12.8807 862.498 12.5994C862.498 12.3295 862.437 12.0952 862.315 11.8963C862.195 11.6946 862.025 11.5369 861.803 11.4233C861.585 11.3097 861.326 11.2528 861.028 11.2528C860.744 11.2528 860.478 11.3054 860.231 11.4105C859.987 11.5128 859.788 11.6605 859.634 11.8537C859.481 12.044 859.398 12.2727 859.387 12.5398H858.113C858.127 12.0682 858.266 11.6534 858.531 11.2955C858.798 10.9375 859.15 10.6577 859.587 10.456C860.025 10.2543 860.511 10.1534 861.045 10.1534C861.604 10.1534 862.087 10.2628 862.494 10.4815C862.903 10.6974 863.218 10.9858 863.44 11.3466C863.664 11.7074 863.775 12.1023 863.772 12.5312C863.775 13.0199 863.638 13.4347 863.363 13.7756C863.09 14.1165 862.727 14.3452 862.272 14.4616V14.5298C862.852 14.6179 863.3 14.848 863.619 15.2202C863.94 15.5923 864.099 16.054 864.096 16.6051C864.099 17.0852 863.965 17.5156 863.695 17.8963C863.428 18.277 863.063 18.5767 862.6 18.7955C862.137 19.0114 861.607 19.1193 861.011 19.1193Z" fill="white"/>
</g>
<path d="M428.922 41.5625C428.869 41.0663 428.645 40.6799 428.251 40.4034C427.861 40.1269 427.354 39.9886 426.729 39.9886C426.289 39.9886 425.912 40.0549 425.598 40.1875C425.284 40.3201 425.043 40.5 424.876 40.7273C424.71 40.9545 424.625 41.214 424.621 41.5057C424.621 41.7481 424.676 41.9583 424.786 42.1364C424.899 42.3144 425.053 42.4659 425.246 42.5909C425.439 42.7121 425.653 42.8144 425.888 42.8977C426.123 42.9811 426.359 43.0511 426.598 43.108L427.689 43.3807C428.128 43.483 428.551 43.6212 428.956 43.7955C429.365 43.9697 429.731 44.1894 430.053 44.4545C430.378 44.7197 430.636 45.0398 430.825 45.4148C431.015 45.7898 431.109 46.2292 431.109 46.733C431.109 47.4148 430.935 48.0152 430.587 48.5341C430.238 49.0492 429.734 49.4527 429.075 49.7443C428.42 50.0322 427.626 50.1761 426.695 50.1761C425.789 50.1761 425.003 50.036 424.337 49.7557C423.674 49.4754 423.155 49.0663 422.78 48.5284C422.409 47.9905 422.208 47.3352 422.178 46.5625H424.251C424.282 46.9678 424.407 47.3049 424.626 47.5739C424.846 47.8428 425.132 48.0436 425.484 48.1761C425.84 48.3087 426.238 48.375 426.678 48.375C427.136 48.375 427.537 48.3068 427.882 48.1705C428.231 48.0303 428.503 47.8371 428.7 47.5909C428.897 47.3409 428.998 47.0492 429.001 46.7159C428.998 46.4129 428.909 46.1629 428.734 45.9659C428.56 45.7652 428.316 45.5985 428.001 45.4659C427.691 45.3295 427.327 45.2083 426.911 45.1023L425.587 44.7614C424.628 44.5152 423.871 44.142 423.314 43.642C422.761 43.1383 422.484 42.4697 422.484 41.6364C422.484 40.9508 422.67 40.3504 423.041 39.8352C423.416 39.3201 423.926 38.9205 424.57 38.6364C425.214 38.3485 425.943 38.2045 426.757 38.2045C427.583 38.2045 428.306 38.3485 428.928 38.6364C429.553 38.9205 430.043 39.3163 430.399 39.8239C430.755 40.3277 430.939 40.9072 430.95 41.5625H428.922ZM437.336 41.2727V42.8636H432.319V41.2727H437.336ZM433.557 39.1818H435.614V47.375C435.614 47.6515 435.656 47.8636 435.739 48.0114C435.826 48.1553 435.94 48.2538 436.08 48.3068C436.22 48.3598 436.375 48.3864 436.546 48.3864C436.675 48.3864 436.792 48.3769 436.898 48.358C437.008 48.339 437.091 48.322 437.148 48.3068L437.495 49.9148C437.385 49.9527 437.228 49.9943 437.023 50.0398C436.822 50.0852 436.576 50.1117 436.285 50.1193C435.769 50.1345 435.305 50.0568 434.893 49.8864C434.48 49.7121 434.152 49.4432 433.91 49.0795C433.671 48.7159 433.554 48.2614 433.557 47.7159V39.1818ZM442.906 50.1705C442.031 50.1705 441.275 49.9886 440.639 49.625C440.006 49.2576 439.519 48.7386 439.178 48.0682C438.838 47.3939 438.667 46.6004 438.667 45.6875C438.667 44.7898 438.838 44.0019 439.178 43.3239C439.523 42.642 440.004 42.1117 440.622 41.733C441.239 41.3504 441.964 41.1591 442.798 41.1591C443.336 41.1591 443.843 41.2462 444.321 41.4205C444.802 41.5909 445.226 41.8561 445.593 42.2159C445.964 42.5758 446.256 43.0341 446.468 43.5909C446.68 44.1439 446.786 44.803 446.786 45.5682V46.1989H439.633V44.8125H444.815C444.811 44.4186 444.726 44.0682 444.559 43.7614C444.393 43.4508 444.16 43.2064 443.86 43.0284C443.565 42.8504 443.22 42.7614 442.826 42.7614C442.406 42.7614 442.036 42.8636 441.718 43.0682C441.4 43.2689 441.152 43.5341 440.974 43.8636C440.8 44.1894 440.711 44.5473 440.707 44.9375V46.1477C440.707 46.6553 440.8 47.0909 440.985 47.4545C441.171 47.8144 441.43 48.0909 441.764 48.2841C442.097 48.4735 442.487 48.5682 442.934 48.5682C443.233 48.5682 443.504 48.5265 443.747 48.4432C443.989 48.3561 444.199 48.2292 444.377 48.0625C444.555 47.8958 444.69 47.6894 444.781 47.4432L446.701 47.6591C446.58 48.1667 446.349 48.6098 446.008 48.9886C445.671 49.3636 445.239 49.6553 444.713 49.8636C444.186 50.0682 443.584 50.1705 442.906 50.1705ZM448.607 53.2727V41.2727H450.629V42.7159H450.749C450.855 42.5038 451.004 42.2784 451.197 42.0398C451.391 41.7973 451.652 41.5909 451.982 41.4205C452.311 41.2462 452.732 41.1591 453.243 41.1591C453.917 41.1591 454.525 41.3314 455.067 41.6761C455.612 42.017 456.044 42.5227 456.362 43.1932C456.684 43.8598 456.845 44.678 456.845 45.6477C456.845 46.6061 456.688 47.4205 456.374 48.0909C456.059 48.7614 455.631 49.2727 455.089 49.625C454.548 49.9773 453.934 50.1534 453.249 50.1534C452.749 50.1534 452.334 50.0701 452.004 49.9034C451.675 49.7367 451.41 49.536 451.209 49.3011C451.012 49.0625 450.858 48.8371 450.749 48.625H450.663V53.2727H448.607ZM450.624 45.6364C450.624 46.2008 450.703 46.6951 450.862 47.1193C451.025 47.5436 451.258 47.875 451.561 48.1136C451.868 48.3485 452.239 48.4659 452.675 48.4659C453.129 48.4659 453.51 48.3447 453.817 48.1023C454.124 47.8561 454.355 47.5208 454.51 47.0966C454.669 46.6686 454.749 46.1818 454.749 45.6364C454.749 45.0947 454.671 44.6136 454.516 44.1932C454.36 43.7727 454.129 43.4432 453.822 43.2045C453.516 42.9659 453.133 42.8466 452.675 42.8466C452.235 42.8466 451.862 42.9621 451.555 43.1932C451.249 43.4242 451.016 43.7481 450.857 44.1648C450.701 44.5814 450.624 45.072 450.624 45.6364Z" fill="#1F2937"/>
<path d="M848.922 41.5625C848.869 41.0663 848.645 40.6799 848.251 40.4034C847.861 40.1269 847.354 39.9886 846.729 39.9886C846.289 39.9886 845.912 40.0549 845.598 40.1875C845.284 40.3201 845.043 40.5 844.876 40.7273C844.71 40.9545 844.625 41.214 844.621 41.5057C844.621 41.7481 844.676 41.9583 844.786 42.1364C844.899 42.3144 845.053 42.4659 845.246 42.5909C845.439 42.7121 845.653 42.8144 845.888 42.8977C846.123 42.9811 846.359 43.0511 846.598 43.108L847.689 43.3807C848.128 43.483 848.551 43.6212 848.956 43.7955C849.365 43.9697 849.731 44.1894 850.053 44.4545C850.378 44.7197 850.636 45.0398 850.825 45.4148C851.015 45.7898 851.109 46.2292 851.109 46.733C851.109 47.4148 850.935 48.0152 850.587 48.5341C850.238 49.0492 849.734 49.4527 849.075 49.7443C848.42 50.0322 847.626 50.1761 846.695 50.1761C845.789 50.1761 845.003 50.036 844.337 49.7557C843.674 49.4754 843.155 49.0663 842.78 48.5284C842.409 47.9905 842.208 47.3352 842.178 46.5625H844.251C844.282 46.9678 844.407 47.3049 844.626 47.5739C844.846 47.8428 845.132 48.0436 845.484 48.1761C845.84 48.3087 846.238 48.375 846.678 48.375C847.136 48.375 847.537 48.3068 847.882 48.1705C848.231 48.0303 848.503 47.8371 848.7 47.5909C848.897 47.3409 848.998 47.0492 849.001 46.7159C848.998 46.4129 848.909 46.1629 848.734 45.9659C848.56 45.7652 848.316 45.5985 848.001 45.4659C847.691 45.3295 847.327 45.2083 846.911 45.1023L845.587 44.7614C844.628 44.5152 843.871 44.142 843.314 43.642C842.761 43.1383 842.484 42.4697 842.484 41.6364C842.484 40.9508 842.67 40.3504 843.041 39.8352C843.416 39.3201 843.926 38.9205 844.57 38.6364C845.214 38.3485 845.943 38.2045 846.757 38.2045C847.583 38.2045 848.306 38.3485 848.928 38.6364C849.553 38.9205 850.043 39.3163 850.399 39.8239C850.755 40.3277 850.939 40.9072 850.95 41.5625H848.922ZM857.336 41.2727V42.8636H852.319V41.2727H857.336ZM853.557 39.1818H855.614V47.375C855.614 47.6515 855.656 47.8636 855.739 48.0114C855.826 48.1553 855.94 48.2538 856.08 48.3068C856.22 48.3598 856.375 48.3864 856.546 48.3864C856.675 48.3864 856.792 48.3769 856.898 48.358C857.008 48.339 857.091 48.322 857.148 48.3068L857.495 49.9148C857.385 49.9527 857.228 49.9943 857.023 50.0398C856.822 50.0852 856.576 50.1117 856.285 50.1193C855.769 50.1345 855.305 50.0568 854.893 49.8864C854.48 49.7121 854.152 49.4432 853.91 49.0795C853.671 48.7159 853.554 48.2614 853.557 47.7159V39.1818ZM862.906 50.1705C862.031 50.1705 861.275 49.9886 860.639 49.625C860.006 49.2576 859.519 48.7386 859.178 48.0682C858.838 47.3939 858.667 46.6004 858.667 45.6875C858.667 44.7898 858.838 44.0019 859.178 43.3239C859.523 42.642 860.004 42.1117 860.622 41.733C861.239 41.3504 861.964 41.1591 862.798 41.1591C863.336 41.1591 863.843 41.2462 864.321 41.4205C864.802 41.5909 865.226 41.8561 865.593 42.2159C865.964 42.5758 866.256 43.0341 866.468 43.5909C866.68 44.1439 866.786 44.803 866.786 45.5682V46.1989H859.633V44.8125H864.815C864.811 44.4186 864.726 44.0682 864.559 43.7614C864.393 43.4508 864.16 43.2064 863.86 43.0284C863.565 42.8504 863.22 42.7614 862.826 42.7614C862.406 42.7614 862.036 42.8636 861.718 43.0682C861.4 43.2689 861.152 43.5341 860.974 43.8636C860.8 44.1894 860.711 44.5473 860.707 44.9375V46.1477C860.707 46.6553 860.8 47.0909 860.985 47.4545C861.171 47.8144 861.43 48.0909 861.764 48.2841C862.097 48.4735 862.487 48.5682 862.934 48.5682C863.233 48.5682 863.504 48.5265 863.747 48.4432C863.989 48.3561 864.199 48.2292 864.377 48.0625C864.555 47.8958 864.69 47.6894 864.781 47.4432L866.701 47.6591C866.58 48.1667 866.349 48.6098 866.008 48.9886C865.671 49.3636 865.239 49.6553 864.713 49.8636C864.186 50.0682 863.584 50.1705 862.906 50.1705ZM868.607 53.2727V41.2727H870.629V42.7159H870.749C870.855 42.5038 871.004 42.2784 871.197 42.0398C871.391 41.7973 871.652 41.5909 871.982 41.4205C872.311 41.2462 872.732 41.1591 873.243 41.1591C873.917 41.1591 874.525 41.3314 875.067 41.6761C875.612 42.017 876.044 42.5227 876.362 43.1932C876.684 43.8598 876.845 44.678 876.845 45.6477C876.845 46.6061 876.688 47.4205 876.374 48.0909C876.059 48.7614 875.631 49.2727 875.089 49.625C874.548 49.9773 873.934 50.1534 873.249 50.1534C872.749 50.1534 872.334 50.0701 872.004 49.9034C871.675 49.7367 871.41 49.536 871.209 49.3011C871.012 49.0625 870.858 48.8371 870.749 48.625H870.663V53.2727H868.607ZM870.624 45.6364C870.624 46.2008 870.703 46.6951 870.862 47.1193C871.025 47.5436 871.258 47.875 871.561 48.1136C871.868 48.3485 872.239 48.4659 872.675 48.4659C873.129 48.4659 873.51 48.3447 873.817 48.1023C874.124 47.8561 874.355 47.5208 874.51 47.0966C874.669 46.6686 874.749 46.1818 874.749 45.6364C874.749 45.0947 874.671 44.6136 874.516 44.1932C874.36 43.7727 874.129 43.4432 873.822 43.2045C873.516 42.9659 873.133 42.8466 872.675 42.8466C872.235 42.8466 871.862 42.9621 871.555 43.1932C871.249 43.4242 871.016 43.7481 870.857 44.1648C870.701 44.5814 870.624 45.072 870.624 45.6364Z" fill="#1F2937"/>
<defs>
<filter id="filter0_d_239_3033" x="4" y="0" width="32" height="32" filterUnits="userSpaceOnUse" color-interpolation-filters="sRGB">
<feFlood flood-opacity="0" result="BackgroundImageFix"/>
<feColorMatrix in="SourceAlpha" type="matrix" values="0 0 0 0 0 0 0 0 0 0 0 0 0 0 0 0 0 0 127 0" result="hardAlpha"/>
<feOffset dy="1"/>
<feGaussianBlur stdDeviation="1"/>
<feComposite in2="hardAlpha" operator="out"/>
<feColorMatrix type="matrix" values="0 0 0 0 0 0 0 0 0 0 0 0 0 0 0 0 0 0 0.05 0"/>
<feBlend mode="normal" in2="BackgroundImageFix" result="effect1_dropShadow_239_3033"/>
<feBlend mode="normal" in="SourceGraphic" in2="effect1_dropShadow_239_3033" result="shape"/>
</filter>
<filter id="filter1_d_239_3033" x="425" y="0" width="32" height="32" filterUnits="userSpaceOnUse" color-interpolation-filters="sRGB">
<feFlood flood-opacity="0" result="BackgroundImageFix"/>
<feColorMatrix in="SourceAlpha" type="matrix" values="0 0 0 0 0 0 0 0 0 0 0 0 0 0 0 0 0 0 127 0" result="hardAlpha"/>
<feOffset dy="1"/>
<feGaussianBlur stdDeviation="1"/>
<feComposite in2="hardAlpha" operator="out"/>
<feColorMatrix type="matrix" values="0 0 0 0 0 0 0 0 0 0 0 0 0 0 0 0 0 0 0.05 0"/>
<feBlend mode="normal" in2="BackgroundImageFix" result="effect1_dropShadow_239_3033"/>
<feBlend mode="normal" in="SourceGraphic" in2="effect1_dropShadow_239_3033" result="shape"/>
</filter>
<filter id="filter2_d_239_3033" x="845" y="0" width="32" height="32" filterUnits="userSpaceOnUse" color-interpolation-filters="sRGB">
<feFlood flood-opacity="0" result="BackgroundImageFix"/>
<feColorMatrix in="SourceAlpha" type="matrix" values="0 0 0 0 0 0 0 0 0 0 0 0 0 0 0 0 0 0 127 0" result="hardAlpha"/>
<feOffset dy="1"/>
<feGaussianBlur stdDeviation="1"/>
<feComposite in2="hardAlpha" operator="out"/>
<feColorMatrix type="matrix" values="0 0 0 0 0 0 0 0 0 0 0 0 0 0 0 0 0 0 0.05 0"/>
<feBlend mode="normal" in2="BackgroundImageFix" result="effect1_dropShadow_239_3033"/>
<feBlend mode="normal" in="SourceGraphic" in2="effect1_dropShadow_239_3033" result="shape"/>
</filter>
</defs>
</svg>
