<svg width="96" height="151" viewBox="0 0 96 151" fill="none" xmlns="http://www.w3.org/2000/svg">
<path d="M23.9862 112.326L17.7102 125.638C17.7102 125.638 21.2629 129.04 23.6081 128.739C25.9534 128.438 29.2051 126.243 29.2051 126.243L31.8513 115.277L23.9862 112.326Z" fill="white" stroke="black" stroke-width="2" stroke-miterlimit="10" stroke-linecap="round" stroke-linejoin="round"/>
<path d="M29.5061 123.593C29.5061 123.593 32.2293 134.483 31.7742 134.861C31.3191 135.239 28.0674 135.617 27.5389 135.694C27.0104 135.771 19.2186 134.938 18.0846 134.861C16.9505 134.784 10.7479 135.239 9.0083 134.633C7.26865 134.028 4.24444 131.381 3.78934 130.699C3.33425 130.016 5.15096 129.036 5.98409 128.504C6.81721 127.975 12.5793 126.959 14.0914 125.748C15.6035 124.537 16.8734 121.975 17.3689 120.672C18.0038 119.006 19.3691 118.598 19.8242 118.448C20.2793 118.297 20.5803 120.866 20.5803 120.866L18.9911 123.817C18.9911 123.817 20.8812 125.256 22.6209 126.085C24.3605 126.918 26.6287 126.008 26.6287 126.008L29.5061 123.593Z" fill="#FBB03B" stroke="black" stroke-width="2" stroke-linecap="round" stroke-linejoin="round"/>
<path d="M89.9865 146.282C89.9865 146.282 84.0629 96.669 82.5655 93.5384C81.2956 90.8848 70.2705 91.1197 66.6444 91.9051C63.0183 92.6906 62.8421 97.6746 61.9613 101.103C61.0804 104.534 52.4556 142.458 52.4556 142.458" stroke="#231F20" stroke-width="3" stroke-miterlimit="10" stroke-linecap="round" stroke-linejoin="round"/>
<path d="M56.9697 123.604L87.4283 126.867L77.4014 117.783L56.9697 123.604Z" stroke="#231F20" stroke-width="3" stroke-miterlimit="10" stroke-linecap="round" stroke-linejoin="round"/>
<path d="M75.6252 93.2668L78.0329 135.503" stroke="#231F20" stroke-width="3" stroke-miterlimit="10" stroke-linecap="round" stroke-linejoin="round"/>
<path d="M54.9107 116.499C54.9107 116.499 60.7426 125.784 60.9811 126.746C61.2234 127.708 62.3721 129.014 60.3242 129.374C58.2799 129.733 50.1542 126.243 50.1542 126.243L47.7466 118.723L54.9107 116.499Z" fill="white" stroke="black" stroke-width="2" stroke-miterlimit="10" stroke-linecap="round" stroke-linejoin="round"/>
<path d="M52.3233 125.105C52.3233 125.105 52.4444 122.459 51.2993 122.037C50.1543 121.615 47.7503 120.775 47.5081 121.314C47.2659 121.857 47.0273 125.645 46.6639 126.309C46.3043 126.97 38.9603 132.747 38.1786 132.926C37.3968 133.106 35.3489 134.732 35.47 135.995C35.5911 137.257 37.2757 138.523 40.4651 138.703C43.6544 138.883 49.6111 139.004 51.7178 138.043C53.8244 137.081 54.9071 136.96 56.1109 136.718C57.3147 136.475 63.2714 136.116 64.4165 135.334C65.5616 134.552 65.9212 134.009 65.9212 134.009C65.9212 134.009 64.2953 129.858 63.7558 128.353C63.2127 126.849 61.4106 123.538 61.4106 123.538C61.4106 123.538 62.0125 126.247 60.75 126.485C59.4875 126.728 57.8029 124.981 56.0559 124.859C54.3089 124.738 52.3233 125.105 52.3233 125.105Z" fill="#FBB03B" stroke="black" stroke-width="2" stroke-linecap="round" stroke-linejoin="round"/>
<path d="M73.8672 95.0284C80.767 95.0284 86.3604 93.8437 86.3604 92.3823C86.3604 90.9208 80.767 89.7361 73.8672 89.7361C66.9674 89.7361 61.374 90.9208 61.374 92.3823C61.374 93.8437 66.9674 95.0284 73.8672 95.0284Z" fill="black"/>
<path d="M54.9623 77.0962C54.9623 77.0962 32.6184 80.0543 31.3963 81.9922C30.1741 83.93 26.7021 98.8271 25.48 102.09C24.2578 105.353 21.8062 111.17 21.8062 111.17C21.8062 111.17 23.032 113.926 25.9901 114.535C28.9483 115.148 31.7045 116.881 31.7045 116.881C31.7045 116.881 39.6614 98.1078 40.579 96.0672C41.4965 94.0266 58.9444 85.4568 58.9444 85.4568L54.9623 77.0962Z" fill="#808080" stroke="#231F20" stroke-width="2" stroke-miterlimit="10"/>
<path d="M87.7109 90.5106C89.6194 90.3418 73.1844 94.1954 61.1867 95.7662C55.3328 96.5333 46.2933 96.3792 45.7831 96.6838C45.273 96.9884 45.4785 96.3791 45.273 96.9884C45.0674 97.6013 55.5787 116.884 55.5787 116.884C55.5787 116.884 54.8631 119.538 52.4151 119.74C49.9671 119.945 46.6015 120.353 45.3757 120.353C44.1499 120.353 41.2945 119.229 41.2945 119.229C41.2945 119.229 39.1511 113.713 38.3327 112.084C37.5143 110.454 34.7653 104.028 32.7247 101.481C30.6841 98.9299 28.5407 94.8487 28.438 92.7053C28.3352 90.562 29.7629 86.1761 34.1524 84.8512C38.5382 83.5263 63.943 79.0377 65.2679 78.9349C66.5928 78.8285 87.7109 90.5106 87.7109 90.5106Z" fill="#808080" stroke="#231F20" stroke-width="2" stroke-miterlimit="10"/>
<path d="M2.65161 127.021L28.1371 128.878L40.2082 125.678L42.1718 126.195L42.069 130.115L28.9629 133.932L2.85714 131.767L2.65161 127.021Z" fill="white" stroke="black" stroke-width="2" stroke-miterlimit="10" stroke-linecap="round" stroke-linejoin="round"/>
<path d="M5.3307 150C6.65836 150 7.73466 148.924 7.73466 147.596C7.73466 146.268 6.65836 145.192 5.3307 145.192C4.00304 145.192 2.92676 146.268 2.92676 147.596C2.92676 148.924 4.00304 150 5.3307 150Z" fill="white" stroke="black" stroke-width="2" stroke-miterlimit="10" stroke-linecap="round" stroke-linejoin="round"/>
<path d="M6.43178 150C7.75944 150 8.83573 148.924 8.83573 147.596C8.83573 146.268 7.75944 145.192 6.43178 145.192C5.10411 145.192 4.02783 146.268 4.02783 147.596C4.02783 148.924 5.10411 150 6.43178 150Z" fill="white" stroke="black" stroke-width="2" stroke-miterlimit="10" stroke-linecap="round" stroke-linejoin="round"/>
<path d="M43.5187 149.446C44.8464 149.446 45.9226 148.37 45.9226 147.042C45.9226 145.714 44.8464 144.638 43.5187 144.638C42.191 144.638 41.1147 145.714 41.1147 147.042C41.1147 148.37 42.191 149.446 43.5187 149.446Z" fill="white" stroke="black" stroke-width="2" stroke-miterlimit="10" stroke-linecap="round" stroke-linejoin="round"/>
<path d="M44.6234 149.446C45.9511 149.446 47.0274 148.37 47.0274 147.042C47.0274 145.714 45.9511 144.638 44.6234 144.638C43.2958 144.638 42.2195 145.714 42.2195 147.042C42.2195 148.37 43.2958 149.446 44.6234 149.446Z" fill="white" stroke="black" stroke-width="2" stroke-miterlimit="10" stroke-linecap="round" stroke-linejoin="round"/>
<path d="M4.0829 137.617C5.41056 137.617 6.48684 136.541 6.48684 135.213C6.48684 133.885 5.41056 132.809 4.0829 132.809C2.75523 132.809 1.67896 133.885 1.67896 135.213C1.67896 136.541 2.75523 137.617 4.0829 137.617Z" fill="white" stroke="black" stroke-width="2" stroke-miterlimit="10" stroke-linecap="round" stroke-linejoin="round"/>
<path d="M5.18765 137.617C6.51531 137.617 7.59159 136.541 7.59159 135.213C7.59159 133.885 6.51531 132.809 5.18765 132.809C3.85998 132.809 2.78369 133.885 2.78369 135.213C2.78369 136.541 3.85998 137.617 5.18765 137.617Z" fill="white" stroke="black" stroke-width="2" stroke-miterlimit="10" stroke-linecap="round" stroke-linejoin="round"/>
<path d="M46.877 126.184C46.877 126.184 47.9083 125.95 49.9195 127.403" stroke="black" stroke-width="2" stroke-miterlimit="10" stroke-linecap="round" stroke-linejoin="round"/>
<path d="M45.2876 127.777C45.2876 127.777 46.3189 127.542 48.3302 128.996" stroke="black" stroke-width="2" stroke-miterlimit="10" stroke-linecap="round" stroke-linejoin="round"/>
<path d="M43.5078 129.319C43.5078 129.319 44.5391 129.084 46.5504 130.537" stroke="black" stroke-width="2" stroke-miterlimit="10" stroke-linecap="round" stroke-linejoin="round"/>
<path d="M30.4053 86.0549H26.3828V136.204H30.4053V86.0549Z" fill="white" stroke="black" stroke-width="2" stroke-miterlimit="10" stroke-linecap="round" stroke-linejoin="round"/>
<path d="M1 139.401L27.5388 135.694L30.4089 136.204L45.2657 138.472L45.1629 144.047L28.2398 140.641L1.10276 144.458L1 139.401Z" fill="white" stroke="black" stroke-width="2" stroke-miterlimit="10" stroke-linecap="round" stroke-linejoin="round"/>
<path d="M1.14689 78.4174L1.07349 84.319L1.14689 87.5964H40.7808V84.6823L38.1567 78.4174H1.14689Z" fill="white" stroke="black" stroke-width="2" stroke-miterlimit="10" stroke-linecap="round" stroke-linejoin="round"/>
<path d="M40.8395 75.0959C40.711 75.0959 38.4686 76.0869 38.6851 77.0778C38.9017 78.0688 40.4101 77.6797 41.313 77.3347C42.2158 76.9897 43.4673 76.2153 43.4673 76.2153L40.8395 75.0959Z" fill="white" stroke="black" stroke-width="2" stroke-miterlimit="10" stroke-linecap="round" stroke-linejoin="round"/>
<path d="M51.116 73.0516C51.116 73.0516 47.2623 72.2589 46.1833 72.314C45.1079 72.369 39.8339 71.5762 39.155 71.69C38.476 71.8038 35.7527 71.8589 34.7324 72.5415C33.7121 73.2205 32.0679 75.5473 32.0129 75.7712C31.9578 75.9988 32.1817 76.3952 32.1817 76.3952C32.1817 76.3952 32.3505 77.5843 32.6368 77.7568C32.9194 77.9256 34.3948 76.5676 35.4701 75.885C36.5455 75.206 38.8136 75.3198 39.4963 75.3749C40.1753 75.4299 43.2105 77.0778 45.0199 77.1218C46.8293 77.1659 49.9342 76.8649 50.7086 76.6924C51.483 76.5199 51.116 73.0516 51.116 73.0516Z" fill="white" stroke="black" stroke-width="2" stroke-miterlimit="10" stroke-linecap="round" stroke-linejoin="round"/>
<path d="M32.1853 76.3988C32.1853 76.3988 34.8058 73.8921 36.2702 73.4627C37.7346 73.0333 38.4686 72.9452 38.4686 72.9452" stroke="black" stroke-width="2" stroke-miterlimit="10" stroke-linecap="round" stroke-linejoin="round"/>
<path d="M48.6238 69.1429C48.6238 69.1429 43.592 69.6861 42.4323 69.264C41.2725 68.842 39.0557 67.9978 38.2666 68.1556C37.4739 68.3135 33.1504 69.8953 32.7284 70.1595C32.3063 70.4238 31.8842 72.7433 31.7778 73.3783C31.6714 74.0095 32.3577 74.6958 32.3577 74.6958" stroke="black" stroke-width="2" stroke-miterlimit="10" stroke-linecap="round" stroke-linejoin="round"/>
<path d="M32.6733 74.2224C32.6733 74.2224 33.8882 71.2679 34.413 70.8459C34.9415 70.4238 35.837 70.2146 35.837 70.2146" stroke="black" stroke-width="2" stroke-miterlimit="10" stroke-linecap="round" stroke-linejoin="round"/>
<path d="M50.4809 68.7281L48.6238 69.1392C48.6238 69.1392 50.8332 71.8588 50.947 72.5965C51.0608 73.3342 54.463 72.7103 54.463 72.7103L50.4809 68.7281Z" fill="white" stroke="black" stroke-width="2" stroke-miterlimit="10" stroke-linecap="round" stroke-linejoin="round"/>
<path d="M50.7268 71.5946C50.7268 71.5946 50.2093 72.6589 50.0956 74.4169C49.9818 76.175 50.1506 78.2706 50.1506 78.2706C50.1506 78.2706 52.8151 79.6873 53.7767 79.8011C54.742 79.9148 54.441 72.013 54.441 72.013L50.7268 71.5946Z" fill="white" stroke="black" stroke-width="2" stroke-miterlimit="10" stroke-linecap="round" stroke-linejoin="round"/>
<path d="M63.3522 64.4965L50.481 68.7318C50.481 68.7318 53.1381 71.8037 53.3033 72.9672C53.4685 74.1306 57.2891 74.4609 59.5315 73.547C61.774 72.6332 65.4258 71.2202 65.4258 71.2202L63.3522 64.4965Z" fill="#2563EB" stroke="black" stroke-width="2" stroke-linecap="round" stroke-linejoin="round"/>
<path d="M70.2446 35.2638C70.2446 35.2638 68.7509 37.0916 68.3361 40.4938C67.9214 43.8997 65.4294 48.6305 64.5999 52.5355C63.7705 56.4369 62.5226 63.4983 62.3575 66.5702C62.1923 69.6421 61.7776 78.5275 61.7776 78.5275C61.7776 78.5275 67.092 82.7629 69.4996 85.1705C71.9072 87.5781 73.9845 89.571 78.1354 90.8996C82.2864 92.2282 85.1124 93.0577 88.2651 92.1438C91.4214 91.2299 94.4933 88.4883 94.4933 88.4883C94.4933 88.4883 93.7446 71.7157 93.0803 65.4031C92.416 59.0904 92.2508 44.6447 91.2526 40.4901C90.2543 36.3392 87.5971 30.9404 85.6886 28.8631C83.7801 26.7858 83.4461 26.705 82.4515 26.4555C81.4569 26.2132 70.2446 35.2638 70.2446 35.2638Z" fill="#2563EB" stroke="black" stroke-width="2" stroke-linecap="round" stroke-linejoin="round"/>
<path d="M65.9983 15.7606C67.409 15.7606 68.5527 14.6169 68.5527 13.2062C68.5527 11.7954 67.409 10.6517 65.9983 10.6517C64.5875 10.6517 63.4438 11.7954 63.4438 13.2062C63.4438 14.6169 64.5875 15.7606 65.9983 15.7606Z" stroke="black" stroke-width="2" stroke-miterlimit="10" stroke-linecap="round" stroke-linejoin="round"/>
<path d="M73.7534 15.7606C75.1642 15.7606 76.3078 14.6169 76.3078 13.2062C76.3078 11.7954 75.1642 10.6517 73.7534 10.6517C72.3426 10.6517 71.199 11.7954 71.199 13.2062C71.199 14.6169 72.3426 15.7606 73.7534 15.7606Z" stroke="black" stroke-width="2" stroke-miterlimit="10" stroke-linecap="round" stroke-linejoin="round"/>
<path d="M68.582 12.6777H71.1988" stroke="black" stroke-width="2" stroke-miterlimit="10" stroke-linecap="round" stroke-linejoin="round"/>
<path d="M76.2747 12.3694C76.304 12.2777 79.3649 10.6702 79.3649 10.6702" stroke="black" stroke-width="2" stroke-miterlimit="10" stroke-linecap="round" stroke-linejoin="round"/>
<path d="M66.681 13.1107C66.8938 13.1107 67.0664 12.9382 67.0664 12.7253C67.0664 12.5125 66.8938 12.34 66.681 12.34C66.4682 12.34 66.2957 12.5125 66.2957 12.7253C66.2957 12.9382 66.4682 13.1107 66.681 13.1107Z" stroke="black" stroke-width="2" stroke-miterlimit="10" stroke-linecap="round" stroke-linejoin="round"/>
<path d="M74.1425 13.1107C74.3553 13.1107 74.5278 12.9382 74.5278 12.7253C74.5278 12.5125 74.3553 12.34 74.1425 12.34C73.9296 12.34 73.7571 12.5125 73.7571 12.7253C73.7571 12.9382 73.9296 13.1107 74.1425 13.1107Z" stroke="black" stroke-width="2" stroke-miterlimit="10" stroke-linecap="round" stroke-linejoin="round"/>
<path d="M68.9529 16.48C68.9529 16.48 70.0356 16.9131 70.8393 16.5717" stroke="black" stroke-width="2" stroke-miterlimit="10" stroke-linecap="round" stroke-linejoin="round"/>
<path d="M68.927 20.1684L73.111 18.3003C73.111 18.3003 73.3018 20.0069 72.1788 20.7299C70.1969 21.9998 68.927 20.1684 68.927 20.1684Z" stroke="black" stroke-width="2" stroke-miterlimit="10" stroke-linecap="round" stroke-linejoin="round"/>
<path d="M65.1836 9.89937C65.1836 9.89937 66.7287 9.18736 67.5618 9.59108" stroke="black" stroke-width="2" stroke-miterlimit="10" stroke-linecap="round" stroke-linejoin="round"/>
<path d="M72.1018 8.94148C72.1018 8.94148 73.6469 8.22947 74.4801 8.63319" stroke="black" stroke-width="2" stroke-miterlimit="10" stroke-linecap="round" stroke-linejoin="round"/>
<path d="M78.8989 16.7846C78.8989 16.7846 77.0344 24.6094 72.1898 25.281C68.9234 25.7324 65.0367 23.0312 63.3154 15.834C61.8987 9.90675 63.4292 5.64203 69.3198 4.89699C75.2067 4.15195 78.7851 7.24589 79.2328 9.25713C79.6806 11.2684 79.3172 12.2043 79.3172 12.2043C79.3172 12.2043 80.2421 11.606 81.3212 12.685C82.4002 13.7641 80.4256 16.5974 80.4256 16.5974L80.2385 22.3375" stroke="black" stroke-width="2" stroke-miterlimit="10" stroke-linecap="round" stroke-linejoin="round"/>
<path d="M70.3291 25.3507L70.6264 33.2966" stroke="black" stroke-width="2" stroke-miterlimit="10" stroke-linecap="round" stroke-linejoin="round"/>
<path d="M80.4477 12.8428C79.4054 13.0264 78.3961 12.3731 78.1429 11.3454C77.9006 10.3655 77.5923 9.21673 77.3061 8.50473C76.7262 7.05869 75.3939 6.94125 71.5733 7.34496C67.7527 7.74868 64.2403 7.5248 63.5577 9.81497C63.2641 10.7986 63.5981 16.924 63.5981 16.924C63.5981 16.924 62.3942 14.2081 61.8731 11.5436C61.3519 8.87908 61.8364 7.93585 61.8364 6.65497C61.8364 6.54854 60.9225 5.85488 60.4234 4.40517C59.8765 2.80865 59.7407 0.441407 59.7407 0.441407C59.7407 0.441407 62.4273 2.13702 66.3653 1.09469C66.8535 0.966238 67.4591 0.797413 68.1417 0.632256C71.5439 -0.186187 76.9354 -0.938566 79.9706 3.35184C83.1563 7.85144 81.3249 12.6887 81.3249 12.6887L80.4477 12.8428Z" fill="black"/>
<path d="M81.2002 24.1506C81.2002 23.9745 80.7891 22.033 80.7891 22.033L68.8464 34.328C68.8464 34.328 71.5513 39.8002 71.4926 39.624C71.4339 39.4478 81.2002 24.1506 81.2002 24.1506Z" fill="white" stroke="black" stroke-width="2" stroke-miterlimit="10" stroke-linecap="round" stroke-linejoin="round"/>
<path d="M81.2 24.1506L83.4938 27.0904C83.4938 27.0904 80.4953 29.3255 77.7867 33.3847C75.0818 37.4439 70.8465 44.7989 69.962 47.3863C69.0811 49.9738 68.4902 51.6217 68.4902 51.6217C68.4902 51.6217 70.6666 41.8554 72.0796 37.209C73.4926 32.5626 81.2 24.1506 81.2 24.1506Z" fill="#2563EB" stroke="black" stroke-width="2" stroke-linecap="round" stroke-linejoin="round"/>
<path d="M88.2211 51.9887C88.2211 51.9887 87.3402 53.3062 86.4007 55.9451C85.4575 58.5839 76.2931 76.2263 74.8471 77.1035C73.4047 77.9843 53.751 81.1223 53.751 81.1223C53.751 81.1223 52.4958 78.4211 52.1802 76.2263C51.8646 74.0316 52.8702 71.6423 52.8702 71.6423C52.8702 71.6423 65.5102 69.3962 66.8388 68.3172C68.1674 67.2381 69.9107 65.9903 69.9951 65.4948C70.0795 64.9957 71.6577 58.5178 71.988 56.0295C72.322 53.5375 73.3166 48.4727 73.8965 46.1495C74.4764 43.8226 76.4693 40.7507 76.8877 40.1708" fill="#2563EB"/>
<path d="M88.2211 51.9887C88.2211 51.9887 87.3402 53.3062 86.4007 55.9451C85.4575 58.5839 76.2931 76.2263 74.8471 77.1035C73.4047 77.9843 53.751 81.1223 53.751 81.1223C53.751 81.1223 52.4958 78.4211 52.1802 76.2263C51.8646 74.0316 52.8702 71.6423 52.8702 71.6423C52.8702 71.6423 65.5102 69.3962 66.8388 68.3172C68.1674 67.2381 69.9107 65.9903 69.9951 65.4948C70.0795 64.9957 71.6577 58.5178 71.988 56.0295C72.322 53.5375 73.3166 48.4727 73.8965 46.1495C74.4764 43.8226 76.4693 40.7507 76.8877 40.1708" stroke="black" stroke-width="2" stroke-linecap="round" stroke-linejoin="round"/>
</svg>
