<svg width="130" height="121" viewBox="0 0 130 121" fill="none" xmlns="http://www.w3.org/2000/svg">
<path d="M26.8057 78.8468C31.6651 78.8468 35.6045 74.7583 35.6045 69.7147C35.6045 64.6712 31.6651 60.5826 26.8057 60.5826C21.9462 60.5826 18.0068 64.6712 18.0068 69.7147C18.0068 74.7583 21.9462 78.8468 26.8057 78.8468Z" fill="#2563EB" stroke="black" stroke-width="2" stroke-linecap="round" stroke-linejoin="round"/>
<path d="M49.4019 77.5667C54.2613 77.5667 58.2007 73.4781 58.2007 68.4346C58.2007 63.3911 54.2613 59.3025 49.4019 59.3025C44.5424 59.3025 40.603 63.3911 40.603 68.4346C40.603 73.4781 44.5424 77.5667 49.4019 77.5667Z" fill="#2563EB" stroke="black" stroke-width="2" stroke-linecap="round" stroke-linejoin="round"/>
<path d="M19.5439 107.415C19.7334 105.229 16.0268 103.096 11.2649 102.651C6.50306 102.207 2.48917 103.619 2.29967 105.805C2.11017 107.991 5.81681 110.124 10.5787 110.569C15.3406 111.013 19.3544 109.601 19.5439 107.415Z" fill="black"/>
<path d="M11.0063 82.4461C11.0709 82.3121 10.2895 79.8824 12.3076 77.1813C14.3225 74.4802 19.0722 69.755 22.4529 70.499C25.8336 71.2429 26.1597 73.4011 27.3964 76.1692C28.6331 78.9374 30.3896 82.7846 30.9741 86.4307C31.5585 90.0769 30.9095 96.2197 26.8765 98.0394C22.8436 99.8591 22.13 102.292 20.0473 102.292C17.9647 102.292 14.6486 101.347 12.5046 97.8383C10.3606 94.3296 10.9385 82.5835 11.0063 82.4461Z" fill="white" stroke="black" stroke-width="2" stroke-miterlimit="10" stroke-linecap="round" stroke-linejoin="round"/>
<path d="M15.6399 107.366C17.3997 104.809 16.8411 98.3175 17.7323 95.1975C18.6234 92.0776 23.638 85.4589 23.9254 83.991C24.3322 81.9267 23.5573 81.0051 23.5573 81.0051C23.5573 81.0051 24.9812 79.2289 24.1094 78.0527C23.6348 77.4092 23.0826 77.4796 23.0826 77.4796C23.0826 77.4796 23.8414 76.3636 23.0309 75.7303C22.0364 74.9561 20.6577 75.6364 20.6577 75.6364C20.6577 75.6364 20.4446 74.5573 19.9053 74.5071C18.3813 74.363 14.8617 76.6652 12.637 78.3844C10.4123 80.1036 6.63443 83.6392 5.44618 87.2886C4.2547 90.9415 4.67769 103.385 5.43326 105.144C6.19206 106.9 7.57082 108.75 10.5576 108.797C13.5476 108.847 14.7939 108.596 15.6399 107.366Z" fill="white" stroke="black" stroke-width="2" stroke-miterlimit="10" stroke-linecap="round" stroke-linejoin="round"/>
<path d="M23.5605 81.0084C23.5605 81.0084 17.0284 89.4334 16.6248 90.164" stroke="black" stroke-width="2" stroke-miterlimit="10" stroke-linecap="round" stroke-linejoin="round"/>
<path d="M23.0634 77.426C23.0634 77.426 14.9168 87.0307 14.5132 87.7612" stroke="black" stroke-width="2" stroke-miterlimit="10" stroke-linecap="round" stroke-linejoin="round"/>
<path d="M20.661 75.6398C20.661 75.6398 12.227 84.162 11.3132 85.7303" stroke="black" stroke-width="2" stroke-miterlimit="10" stroke-linecap="round" stroke-linejoin="round"/>
<path d="M64.3937 71.2027C64.3937 71.2027 62.1625 65.6497 60.8257 65.7268C59.4889 65.8039 58.2974 66.1893 58.8205 67.6538C59.3404 69.1182 62.0172 76.6015 63.2797 78.686C64.5422 80.7671 66.9219 83.1599 71.6039 85.7068C76.2858 88.2538 81.9364 93.8067 81.9364 93.8067C81.9364 93.8067 84.7069 91.3034 85.7498 89.2893C86.7928 87.2752 86.9284 85.5761 86.9284 85.5761C86.9284 85.5761 85.414 83.4816 84.4034 80.8609C83.3927 78.2403 84.3388 73.3307 84.0869 69.9896C83.8351 66.6484 79.6697 61.216 77.3998 60.8876C75.1299 60.5592 67.3675 62.59 66.105 63.7697C64.8425 64.9493 64.2128 70.9078 64.9684 72.4125C65.724 73.9172 66.6087 74.1149 66.6087 74.1149C66.6087 74.1149 67.3643 76.7993 68.4395 76.997C69.5115 77.1947 70.2703 76.4742 70.2703 76.4742C70.2703 76.4742 71.9752 78.505 73.1731 76.9333C74.3711 75.3616 72.8567 70.9078 72.8567 70.9078L77.2093 70.7771" stroke="black" stroke-width="2" stroke-miterlimit="10" stroke-linecap="round" stroke-linejoin="round"/>
<path d="M70.2671 76.4708C70.2671 76.4708 68.827 71.2261 69.7601 69.078C70.6933 66.9298 77.106 66.5511 77.106 66.5511" stroke="black" stroke-width="2" stroke-miterlimit="10" stroke-linecap="round" stroke-linejoin="round"/>
<path d="M66.8119 74.4501C66.8119 74.4501 66.5374 69.0949 67.5255 66.9735C68.5135 64.8522 73.8154 64.6143 73.8154 64.6143" stroke="black" stroke-width="2" stroke-miterlimit="10" stroke-linecap="round" stroke-linejoin="round"/>
<path d="M74.4292 61.0352C74.4292 61.0352 69.2758 57.7074 67.7743 58.2972C66.2729 58.8871 58.1973 63.4347 58.4007 64.6143C58.6042 65.7939 59.9022 65.9615 61.6071 65.2879C63.312 64.6143 66.105 63.7664 66.105 63.7664" stroke="black" stroke-width="2" stroke-miterlimit="10" stroke-linecap="round" stroke-linejoin="round"/>
<path d="M2.59832 105.395C2.59832 105.395 1 114.206 1 118.422" stroke="black" stroke-width="2" stroke-miterlimit="10" stroke-linecap="round" stroke-linejoin="round"/>
<path d="M19.3307 106.974C19.3177 107.138 20.7966 117.456 20.929 120" stroke="black" stroke-width="2" stroke-miterlimit="10" stroke-linecap="round" stroke-linejoin="round"/>
<path d="M78.7234 90.888C78.7234 90.888 76.4503 97.9624 78.1035 99.8223C79.7567 101.682 82.5304 98.2741 84.1836 95.1306C85.8368 91.9872 87.264 85.955 87.264 85.955C87.264 85.955 84.3063 91.5482 83.3763 92.5133C82.4464 93.4785 81.933 93.8069 81.933 93.8069L78.7234 90.888Z" fill="black"/>
<path d="M86.9253 85.5729L107.487 99.1822" stroke="black" stroke-width="2" stroke-miterlimit="10" stroke-linecap="round" stroke-linejoin="round"/>
<path d="M21.0066 67.5835C21.0066 67.5835 22.5726 66.987 25.8855 66.4676C29.1984 65.9481 31.3585 66.4676 31.3585 66.4676" stroke="black" stroke-width="2" stroke-miterlimit="10" stroke-linecap="round" stroke-linejoin="round"/>
<path d="M23.3796 66.8662C23.3796 66.8662 23.4571 71.0251 26.657 70.7067C29.8569 70.3883 29.2402 66.1055 29.2402 66.1055C29.2402 66.1055 26.9282 66.1457 25.8885 66.4641C24.8456 66.7858 23.3796 66.8662 23.3796 66.8662Z" fill="black"/>
<path d="M43.1826 66.7859C43.1826 66.7859 44.7713 66.2664 48.1067 65.9045C51.4422 65.5426 53.5733 66.1659 53.5733 66.1659" stroke="black" stroke-width="2" stroke-miterlimit="10" stroke-linecap="round" stroke-linejoin="round"/>
<path d="M45.5851 66.1859C45.5851 66.1859 45.4786 70.3448 48.6881 70.1772C51.8977 70.0097 51.4715 65.7067 51.4715 65.7067C51.4715 65.7067 49.1596 65.6363 48.1069 65.9044C47.0511 66.1759 45.5851 66.1859 45.5851 66.1859Z" fill="black"/>
<path d="M34.6584 65.4855C34.6584 65.4855 35.3171 64.0143 37.8745 63.9641C40.2736 63.9138 41.0388 65.2208 41.0388 65.2208" stroke="black" stroke-width="2" stroke-linecap="round" stroke-linejoin="round"/>
<path d="M24.3518 60.9111C24.3518 60.9111 37.3289 50.6765 39.4374 50.5458C41.5426 50.4151 41.7557 52.952 41.7557 52.952" stroke="black" stroke-width="2" stroke-linecap="round" stroke-linejoin="round"/>
<path d="M71.449 59.088C71.449 59.088 84.4261 48.8534 86.5345 48.7227C88.643 48.592 88.8529 51.1288 88.8529 51.1288" stroke="black" stroke-width="2" stroke-linecap="round" stroke-linejoin="round"/>
<path d="M51.6554 37.0103C51.6554 37.0103 51.5973 40.4218 50.8611 43.0693C50.1249 45.7167 49.5566 46.7757 49.5566 46.7757C49.5566 46.7757 51.8233 47.7744 54.0352 47.6001" stroke="black" stroke-width="2" stroke-linecap="round" stroke-linejoin="round"/>
<path d="M50.8613 53.5417L59.7603 50.3044C59.7603 50.3044 60.6095 54.8923 57.4936 56.2462C54.3744 57.6001 50.8613 53.5417 50.8613 53.5417Z" stroke="black" stroke-width="2" stroke-linecap="round" stroke-linejoin="round"/>
<path d="M71.4619 57.0439C71.4619 57.0439 75.0557 54.2121 75.5853 48.0659" stroke="black" stroke-width="2" stroke-linecap="round" stroke-linejoin="round"/>
<path d="M41.281 29.6274C41.281 29.6274 44.3937 45.8273 47.9843 59.2255" stroke="black" stroke-width="2" stroke-linecap="round" stroke-linejoin="round"/>
<path d="M79.4275 45.7837C79.4275 45.7837 84.0739 60.2845 83.5896 62.3622C83.1052 64.44 82.072 64.6545 82.072 64.6545" stroke="black" stroke-width="2" stroke-linecap="round" stroke-linejoin="round"/>
<path d="M84.0386 58.1765C84.4745 58.0257 128.779 67.627 128.779 117.845" stroke="black" stroke-width="2" stroke-linecap="round" stroke-linejoin="round"/>
<path d="M81.7234 46.2327C80.5384 47.2884 78.7238 46.8728 78.0521 45.4083C77.5904 44.3996 77.2288 43.3071 77.4483 42.6871C77.9359 41.3165 80.2995 39.4364 79.3954 36.7655C78.4913 34.0946 75.8468 31.7822 75.1526 35.3211C74.4584 38.86 73.9708 39.5805 72.2304 38.7863C70.49 37.9921 71.5362 24.49 68.1942 22.2513C64.8523 20.0127 60.1251 24.3459 57.0641 24.996C54.0031 25.6461 50.5255 28.7494 44.5423 24.2755C38.5591 19.7982 38.4913 18.498 37.2384 14.7446C35.9856 10.9912 35.5691 7.81424 35.5691 7.81424C35.5691 7.81424 42.8729 7.74051 49.3437 3.84303C55.8145 -0.0544458 69.9346 -2.43717 77.5872 3.98714C85.2397 10.4114 85.934 12.5797 86.1439 19.2218C86.3537 25.864 86.2827 26.9464 86.8381 29.2588C87.3935 31.5678 87.1093 38.0926 85.1687 41.6784C83.9676 43.9003 82.7406 45.3279 81.7234 46.2327Z" fill="black"/>
<path d="M38.9757 17.563C38.9757 17.563 35.9857 21.3164 36.6089 28.9706C37.2353 36.6248 42.9537 48.5016 44.1517 44.7616C44.2808 44.3595 40.2156 23.9974 41.8914 20.3144C43.5672 16.6314 38.9757 17.563 38.9757 17.563Z" fill="black"/>
<path d="M77.9971 99.276L88.4814 118.257" stroke="black" stroke-width="2" stroke-linecap="round" stroke-linejoin="round"/>
</svg>
